<svg width="29" height="25" viewBox="0 0 29 25" fill="none" xmlns="http://www.w3.org/2000/svg">
<path d="M18.4384 24.2L18.4384 24.1997C18.2051 24.1862 17.9807 24.1055 17.7921 23.9674C17.6035 23.8293 17.4589 23.6397 17.3756 23.4213L17.5625 23.35L17.3756 23.4213L10.3965 5.11925L6.59469 13.495C6.59468 13.495 6.59467 13.4951 6.59466 13.4951C6.49937 13.7055 6.34537 13.8839 6.15115 14.009C5.95691 14.134 5.73071 14.2004 5.49969 14.2M18.4384 24.2L5.5 14M18.4384 24.2H18.45H18.5V24M18.4384 24.2L18.5 24M5.49969 14.2L5.5 14M5.49969 14.2H5.5V14M5.49969 14.2H1.5C1.18174 14.2 0.876516 14.0736 0.651472 13.8485C0.426428 13.6235 0.3 13.3183 0.3 13C0.3 12.6818 0.426428 12.3765 0.651472 12.1515C0.876515 11.9264 1.18174 11.8 1.5 11.8H4.72127M5.5 14H1.5C1.23478 14 0.98043 13.8947 0.792893 13.7071C0.605357 13.5196 0.5 13.2652 0.5 13C0.5 12.7348 0.605357 12.4804 0.792893 12.2929C0.98043 12.1054 1.23478 12 1.5 12H4.85M4.72127 11.8L4.66796 11.9172L4.85 12M4.72127 11.8L9.40546 1.50469L9.40659 1.50219L9.40661 1.5022C9.50768 1.2879 9.66873 1.10751 9.87025 0.982889C10.0718 0.858267 10.3051 0.79476 10.542 0.800063L10.5449 0.800128V0.80015C10.7818 0.808924 11.0109 0.887692 11.2031 1.02651C11.3951 1.16518 11.5418 1.35757 11.6246 1.57942C11.6247 1.57967 11.6248 1.57991 11.6249 1.58015L18.6496 20.0154L22.4211 12.4607L22.4227 12.4573L22.4228 12.4573C22.5257 12.2606 22.6801 12.0955 22.8695 11.9797C23.059 11.8639 23.2764 11.8018 23.4984 11.8L23.5 11.8L27.5 11.8C27.8183 11.8 28.1235 11.9264 28.3485 12.1515C28.5736 12.3765 28.7 12.6818 28.7 13C28.7 13.3183 28.5736 13.6235 28.3485 13.8485C28.1235 14.0736 27.8183 14.2 27.5 14.2H24.2363L19.579 23.5393L19.5773 23.5427L19.5772 23.5427C19.4743 23.7394 19.3199 23.9045 19.1305 24.0203C18.941 24.1361 18.7236 24.1982 18.5016 24.2L18.5 24M4.72127 11.8H4.85V12M4.85 12L18.5 24M10.4125 4.60001L10.2962 4.85629L10.5128 4.86298L10.4125 4.60001Z" fill="#7C7C7C" stroke="#7C7C7C" stroke-width="0.4"/>
</svg>
